<svg preserveAspectRatio="none" width="100%" height="100%" overflow="visible" style="display: block;" viewBox="0 0 202.59 57.753" fill="none" xmlns="http://www.w3.org/2000/svg">
<g id="Group">
<path id="Vector" d="M104.974 22.4088C104.974 29.4291 104.974 36.407 104.974 43.4478C102.32 43.4478 99.6846 43.4478 96.9707 43.4478C96.9707 42.8586 96.9707 42.2885 96.9707 41.6701C96.8248 41.7139 96.7437 41.7124 96.7054 41.7519C93.2707 45.2226 87.1059 44.5282 83.8569 40.7651C79.8709 36.1483 80.4075 28.0198 85.0348 24.0974C88.0125 21.5726 92.429 21.1515 95.4303 23.1266C95.9315 23.4556 96.3737 23.8708 96.9398 24.3225C96.9398 23.6442 96.9398 23.0521 96.9398 22.4088C99.6404 22.4088 102.257 22.4088 104.974 22.4088ZM96.9324 33.0051C96.9354 31.1133 95.874 29.5578 94.2436 29.068C92.314 28.4876 90.3726 29.5417 89.7181 31.5241C88.9825 33.7507 89.9819 36.1146 91.9602 36.8295C94.4618 37.7316 96.9265 35.8354 96.9324 33.0051Z" fill="white"/>
<path id="Vector_2" d="M180.779 22.3957C180.779 27.03 180.783 31.5826 180.77 36.1351C180.769 36.5181 180.664 36.9055 180.579 37.2842C180.094 39.442 178.898 41.1335 176.973 42.2139C172.568 44.6846 168.025 44.7241 163.53 42.5399C160.637 41.1335 159.221 38.6292 159.183 35.448C159.133 31.2361 159.176 27.0227 159.182 22.8094C159.182 22.6924 159.21 22.5755 159.23 22.4059C162.092 22.4059 164.923 22.4059 167.861 22.4059C167.861 22.7202 167.861 23.0272 167.861 23.3342C167.861 26.9628 167.861 30.5914 167.866 34.2199C167.866 34.5342 167.882 34.853 167.929 35.1629C168.134 36.5093 168.85 37.0941 170.171 37.0152C171.427 36.9392 172.12 36.1906 172.124 34.8369C172.135 30.9408 172.127 27.0447 172.127 23.1486C172.127 22.9117 172.127 22.6734 172.127 22.3971C175.036 22.3957 177.869 22.3957 180.779 22.3957Z" fill="white"/>
<path id="Vector_3" d="M182.244 41.651C183.182 39.809 184.086 38.0342 185.023 36.195C185.274 36.3178 185.508 36.4275 185.735 36.5459C187.89 37.6745 190.152 38.4026 192.624 38.3222C192.82 38.3163 193.02 38.3134 193.21 38.2695C193.694 38.1555 194.208 38.0371 194.247 37.4143C194.283 36.8251 193.831 36.6073 193.37 36.4977C191.895 36.1453 190.407 35.8573 188.935 35.4933C187.405 35.1161 185.919 34.6205 184.737 33.5094C182.626 31.5256 182.415 27.8458 184.27 25.2713C185.722 23.2538 187.825 22.3109 190.188 21.9498C194.255 21.3299 198.147 21.9805 201.831 23.8123C201.959 23.8766 202.074 23.9658 202.279 24.0974C201.37 25.9073 200.467 27.7011 199.589 29.4481C198.169 28.9437 196.844 28.3707 195.463 28.0169C194.509 27.7713 193.479 27.7917 192.481 27.7625C191.944 27.7464 191.399 27.9672 191.326 28.571C191.248 29.2157 191.811 29.4291 192.316 29.5548C193.716 29.9028 195.131 30.1923 196.532 30.5402C197.242 30.7171 197.945 30.9364 198.631 31.1952C202.558 32.679 203.261 36.1673 202.054 39.3061C201.134 41.6964 199.163 42.958 196.775 43.5311C191.866 44.7095 187.143 44.0326 182.613 41.8733C182.504 41.8206 182.405 41.749 182.244 41.651Z" fill="white"/>
<path id="Vector_4" d="M145.322 24.0126C144.364 25.9263 143.465 27.7259 142.604 29.4452C141.172 28.9394 139.843 28.3648 138.455 28.0154C137.478 27.7698 136.421 27.7873 135.4 27.7727C134.915 27.7654 134.385 27.9379 134.335 28.5651C134.287 29.1864 134.757 29.4057 135.252 29.5271C136.844 29.9189 138.445 30.2741 140.034 30.6732C140.649 30.8282 141.258 31.0329 141.846 31.2697C146.69 33.2229 146.249 38.6994 143.867 41.2242C142.21 42.9814 140.056 43.6934 137.755 43.9405C133.601 44.3864 129.586 43.8162 125.805 41.9581C125.673 41.8937 125.542 41.8265 125.415 41.7519C125.376 41.7285 125.349 41.6832 125.258 41.5853C126.164 39.8265 127.086 38.043 128.011 36.2477C128.972 36.676 129.85 37.1789 130.794 37.4582C132.078 37.8383 133.405 38.0897 134.729 38.3076C135.268 38.3967 135.88 38.3514 136.398 38.1848C136.75 38.0707 137.157 37.6731 137.232 37.3354C137.278 37.1292 136.787 36.6366 136.46 36.5474C135.165 36.1892 133.833 35.9655 132.528 35.6395C131.651 35.4202 130.769 35.179 129.938 34.834C126.27 33.3062 124.945 29.5095 126.819 26.0067C127.889 24.0053 129.637 22.8343 131.775 22.2816C136.479 21.0653 140.948 21.8577 145.322 24.0126Z" fill="white"/>
<path id="Vector_5" d="M80.2645 22.3196C79.5363 24.5023 78.8494 26.6002 78.1182 28.6806C78.0548 28.859 77.6907 29.03 77.4607 29.0373C76.364 29.0739 75.2658 29.0534 74.1852 29.0534C74.1852 31.2756 74.1248 33.4129 74.2088 35.5445C74.2545 36.6965 74.937 37.2155 76.1016 37.2389C76.4878 37.2462 76.8844 37.1789 77.2617 37.0883C77.6391 36.9976 77.9973 36.8368 78.4351 36.6819C79.2783 38.4815 80.1319 40.2753 80.9426 42.0911C80.9972 42.2124 80.7643 42.5984 80.5918 42.6583C79.2621 43.1291 77.9413 43.6817 76.5659 43.9522C74.8044 44.3001 73.0045 44.2065 71.2267 43.844C67.6888 43.1247 65.5985 40.6876 65.5307 37.0722C65.485 34.6614 65.5174 32.2492 65.5159 29.8385C65.5159 29.6002 65.5159 29.3633 65.5159 29.0651C64.7184 29.0651 63.9917 29.0651 63.2089 29.0651C63.2089 26.8034 63.2089 24.6047 63.2089 22.3313C63.9519 22.3313 64.6771 22.3313 65.5189 22.3313C65.5189 21.3694 65.4938 20.479 65.5351 19.5916C65.5469 19.3446 65.6869 19.0112 65.8815 18.8797C68.5054 17.0829 71.15 15.3154 73.7902 13.5421C73.8462 13.5041 73.9184 13.4894 74.0629 13.431C74.0776 13.7453 74.1012 14.0216 74.1012 14.2994C74.1027 16.735 74.1219 19.1706 74.085 21.6062C74.0762 22.2071 74.2766 22.3489 74.8397 22.3357C76.3861 22.3021 77.9339 22.3211 79.4818 22.3182C79.7206 22.3196 79.9594 22.3196 80.2645 22.3196Z" fill="white"/>
<path id="Vector_6" d="M116.018 22.4234C116.018 23.2538 116.018 24.093 116.018 25.1514C118.354 22.2802 121.142 21.3416 124.6 22.2202C124.328 24.9555 124.062 27.6075 123.8 30.2244C122.824 30.1206 121.934 29.9481 121.043 29.9467C118.453 29.9437 116.389 31.4656 116.465 34.4831C116.534 37.2579 116.475 40.0356 116.482 42.8118C116.484 43.2036 116.507 43.5267 115.938 43.5224C113.385 43.499 110.83 43.5048 108.276 43.4975C108.207 43.4975 108.139 43.4624 108.027 43.4317C108.027 36.4509 108.027 29.4701 108.027 22.422C110.655 22.4234 113.289 22.4234 116.018 22.4234Z" fill="white"/>
<path id="Vector_7" d="M147.71 22.4C150.552 22.4 153.363 22.4 156.235 22.4C156.254 22.6193 156.289 22.8313 156.289 23.0418C156.291 29.5914 156.281 36.1409 156.3 42.6905C156.301 43.3191 156.149 43.534 155.483 43.5223C153.151 43.4843 150.819 43.5106 148.487 43.5092C148.247 43.5092 148.006 43.4858 147.71 43.4712C147.71 36.4509 147.71 29.4759 147.71 22.4Z" fill="white"/>
<path id="Vector_8" d="M156.764 15.9309C156.764 18.4996 154.616 20.6004 152.004 20.5872C149.48 20.5741 147.361 18.4806 147.343 15.985C147.324 13.2965 149.433 11.1284 152.07 11.1255C154.672 11.1211 156.764 13.2628 156.764 15.9309Z" fill="white"/>
<g id="Group_2">
<path id="Vector_9" d="M26.6698 35.8237C16.9318 37.0766 10.7714 45.5077 10.1449 50.6947C13.755 49.0763 17.4256 48.6991 21.1566 50.1348C24.8581 51.5587 27.4261 54.18 29.0358 57.753C33.4803 50.145 39.8249 47.879 48.077 50.5997C46.5174 42.7841 37.7449 34.3983 26.6698 35.8237Z" fill="white"/>
<path id="Vector_10" d="M19.1341 15.618C16.6797 15.6166 14.7884 17.4879 14.8002 19.9045C14.8135 22.2962 16.6959 24.1485 19.1076 24.1412C21.5178 24.1325 23.4828 22.2027 23.4813 19.846C23.4798 17.5127 21.5325 15.6195 19.1341 15.618ZM21.2318 19.1779C20.8279 19.1779 20.5006 18.8533 20.5006 18.4528C20.5006 18.0522 20.8279 17.7276 21.2318 17.7276C21.6357 17.7276 21.963 18.0522 21.963 18.4528C21.963 18.8533 21.6357 19.1779 21.2318 19.1779Z" fill="white"/>
<path id="Vector_11" d="M38.9257 15.6166C36.4845 15.5903 34.5726 17.4046 34.5402 19.7788C34.5063 22.2319 36.3401 24.1135 38.7974 24.1442C41.2356 24.1749 43.1269 22.3153 43.1476 19.868C43.1667 17.5274 41.2931 15.6429 38.9257 15.6166ZM40.7846 19.1779C40.3806 19.1779 40.0534 18.8534 40.0534 18.4528C40.0534 18.0522 40.3806 17.7277 40.7846 17.7277C41.1885 17.7277 41.5157 18.0522 41.5157 18.4528C41.5157 18.8534 41.1885 19.1779 40.7846 19.1779Z" fill="white"/>
<path id="Vector_12" d="M57.6249 7.10071C57.7812 6.21184 57.8343 5.30543 57.9507 4.26891C54.5661 4.88585 51.6621 6.14459 48.7006 7.6007C48.4176 7.27907 48.1449 6.93112 47.8338 6.62119C45.9543 4.75574 43.7667 3.33472 41.3211 2.3172C35.3215 -0.182741 29.1051 -0.521914 22.7737 0.641801C17.7425 1.56722 13.2774 3.66804 9.59212 7.25568C9.28108 7.5583 9.05111 7.51006 8.69585 7.36386C6.61734 6.50716 4.53588 5.65484 2.43525 4.85807C1.71588 4.58469 0.93312 4.47504 0 4.24552C0.0560167 5.10368 0.0560167 5.7601 0.150361 6.4019C0.551322 9.15622 1.72178 11.5918 3.32857 13.8476C3.50252 14.0918 3.61455 14.4719 3.5718 14.7613C3.34331 16.2949 2.92761 17.811 2.8141 19.349C2.50159 23.5696 3.58212 27.4102 6.68515 30.4262C11.1473 34.7638 16.4291 35.8339 22.3506 33.8852C23.0361 33.66 23.7304 33.3779 24.4306 33.2404C25.3151 34.2916 27.0782 35.0079 29.111 35.0079C31.1232 35.0079 32.8715 34.3062 33.7648 33.2726C34.2409 33.3779 34.7097 33.5211 35.1534 33.6922C37.7066 34.6731 40.3143 35.1015 43.0134 34.6278C48.4927 33.6688 52.3992 30.6937 54.3229 25.4599C55.5833 22.0331 55.2943 18.5156 54.4025 15.0391C54.2757 14.545 54.317 14.1766 54.6163 13.7614C56.0727 11.7453 57.193 9.56849 57.6249 7.10071ZM18.9661 28.5695C14.1766 28.5125 10.2569 24.4556 10.3528 19.6589C10.4486 14.8681 14.4317 11.0421 19.2491 11.1123C24.0341 11.1825 27.9243 15.1473 27.8432 19.8679C27.7577 24.8123 23.8646 28.628 18.9661 28.5695ZM32.8022 31.1206C31.9944 32.1279 30.6131 32.7287 29.1095 32.7287C27.6059 32.7287 26.2246 32.1279 25.4168 31.1206C25.2753 30.9437 25.3048 30.6864 25.4832 30.5461C25.6615 30.4057 25.921 30.4349 26.0625 30.6118C26.7155 31.4261 27.855 31.9115 29.111 31.9115C30.3669 31.9115 31.5064 31.4261 32.1595 30.6118C32.301 30.4349 32.5604 30.4057 32.7388 30.5461C32.9157 30.6864 32.9452 30.9437 32.8022 31.1206ZM47.7174 20.1808C47.5552 24.7538 43.5294 28.625 38.8387 28.5519C33.9299 28.4745 30.078 24.5579 30.1561 19.7232C30.2343 14.9543 34.2689 10.9997 39.0245 11.1138C44.374 11.241 47.878 15.6487 47.7174 20.1808Z" fill="white"/>
</g>
</g>
</svg>
