<?xml version="1.0" encoding="utf-8"?>
<!-- Generator: Adobe Illustrator 23.1.0, SVG Export Plug-In . SVG Version: 6.00 Build 0)  -->
<svg version="1.1" xmlns="http://www.w3.org/2000/svg" xmlns:xlink="http://www.w3.org/1999/xlink" x="0px" y="0px"
	 viewBox="0 0 1088.99 1053.96" style="enable-background:new 0 0 1088.99 1053.96;" xml:space="preserve">
<style type="text/css">
	.st0{display:none;}
	.st1{display:inline;}
	.st2{fill:#FFFFFF;}
</style>
<g id="Layer_1" class="st0">
	<path class="st1" d="M-121.56,358.25c6.33,1.57,11.64,2.33,16.52,4.19c14.26,5.46,28.37,11.28,42.47,17.14
		c2.4,1,3.97,1.33,6.08-0.74c25-24.54,55.28-38.91,89.42-45.24c42.95-7.97,85.12-5.64,125.83,11.46
		c16.58,6.96,31.42,16.68,44.18,29.44c2.11,2.11,3.96,4.49,5.88,6.7c20.09-9.96,39.78-18.57,62.75-22.79
		c-0.79,7.09-1.15,13.29-2.21,19.37c-2.93,16.88-10.54,31.77-20.41,45.56c-2.03,2.84-2.31,5.36-1.45,8.74
		c6.05,23.78,8.01,47.84-0.54,71.28c-13.06,35.8-39.55,56.15-76.72,62.71c-18.31,3.23-36,0.31-53.32-6.4
		c-6.23-2.42-13.15-4.04-19.8-4.22c-16.3-0.44-32.66-0.25-48.94,0.6c-6.11,0.32-12.16,2.96-18.11,4.93
		c-40.17,13.33-76,6.01-106.27-23.66c-21.05-20.63-28.38-46.9-26.26-75.77c0.77-10.53,3.59-20.89,5.14-31.38
		c0.29-1.98-0.47-4.57-1.65-6.25c-10.9-15.43-18.83-32.09-21.56-50.93C-121.18,368.61-121.18,364.12-121.56,358.25z M141.91,524.51
		c31.82,0.5,59.13-25.98,60.23-57.26c1.09-31-22.68-61.15-58.97-62.02c-32.26-0.78-59.63,26.27-60.16,58.89
		C82.48,497.19,108.61,523.98,141.91,524.51z M67.32,465.11c0.55-32.3-25.84-59.41-58.3-59.89c-32.67-0.49-59.69,25.68-60.35,58.46
		c-0.66,32.81,25.94,60.56,58.43,60.95C40.33,525.03,66.74,498.93,67.32,465.11z M71.04,534.69c-0.09-5.37-4.4-9.74-9.42-9.56
		c-5.09,0.18-8.94,4.61-8.78,10.11c0.14,5.07,4.24,8.93,9.39,8.87C67.25,544.06,71.13,539.9,71.04,534.69z M88.89,525.13
		c-4.64-0.01-8.87,4.5-8.95,9.53c-0.08,5.3,3.75,9.43,8.77,9.45c5.15,0.02,9.35-4.35,9.26-9.61
		C97.87,529.42,93.73,525.14,88.89,525.13z"/>
	<path class="st1" d="M75.41,722.24c-10.92-24.43-28.34-42.37-53.45-52.11c-25.31-9.82-50.21-7.24-74.7,3.83
		c4.25-35.47,46.04-93.14,112.1-101.72c75.13-9.75,134.64,47.61,145.22,101.06C148.6,654.71,105.56,670.2,75.41,722.24z"/>
	<path class="st1" d="M590.55,482.49c0,48.02,0,95.75,0,143.91c-18,0-35.88,0-54.29,0c0-4.03,0-7.93,0-12.16
		c-0.99,0.3-1.54,0.29-1.8,0.56c-23.3,23.74-65.12,18.99-87.16-6.75c-27.04-31.58-23.4-87.18,7.99-114.01
		c20.2-17.27,50.16-20.15,70.52-6.64c3.4,2.25,6.4,5.09,10.24,8.18c0-4.64,0-8.69,0-13.09
		C554.37,482.49,572.12,482.49,590.55,482.49z M536,554.97c0.02-12.94-7.18-23.58-18.24-26.93c-13.09-3.97-26.26,3.24-30.7,16.8
		c-4.99,15.23,1.79,31.4,15.21,36.29C519.23,587.3,535.96,574.33,536,554.97z"/>
	<path class="st1" d="M1104.78,482.4c0,31.7,0.03,62.84-0.06,93.98c-0.01,2.62-0.72,5.27-1.3,7.86
		c-3.29,14.76-11.4,26.33-24.46,33.72c-29.88,16.9-60.7,17.17-91.19,2.23c-19.63-9.62-29.23-26.75-29.49-48.51
		c-0.34-28.81-0.05-57.63-0.01-86.45c0-0.8,0.19-1.6,0.33-2.76c19.41,0,38.62,0,58.55,0c0,2.15,0,4.25,0,6.35
		c0,24.82,0,49.64,0.03,74.46c0,2.15,0.11,4.33,0.43,6.45c1.39,9.21,6.25,13.21,15.21,12.67c8.52-0.52,13.22-5.64,13.25-14.9
		c0.07-26.65,0.02-53.3,0.02-79.95c0-1.62,0-3.25,0-5.14C1065.82,482.4,1085.05,482.4,1104.78,482.4z"/>
	<path class="st1" d="M1114.72,614.11c6.36-12.6,12.49-24.74,18.85-37.32c1.7,0.84,3.29,1.59,4.83,2.4
		c14.62,7.72,29.96,12.7,46.73,12.15c1.33-0.04,2.69-0.06,3.98-0.36c3.28-0.78,6.77-1.59,7.03-5.85c0.25-4.03-2.82-5.52-5.95-6.27
		c-10-2.41-20.1-4.38-30.08-6.87c-10.38-2.58-20.46-5.97-28.48-13.57c-14.32-13.57-15.75-38.74-3.17-56.35
		c9.85-13.8,24.12-20.25,40.15-22.72c27.59-4.24,53.99,0.21,78.98,12.74c0.87,0.44,1.65,1.05,3.04,1.95
		c-6.17,12.38-12.29,24.65-18.25,36.6c-9.63-3.45-18.62-7.37-27.99-9.79c-6.47-1.68-13.46-1.54-20.23-1.74
		c-3.64-0.11-7.34,1.4-7.83,5.53c-0.53,4.41,3.29,5.87,6.71,6.73c9.5,2.38,19.1,4.36,28.6,6.74c4.82,1.21,9.59,2.71,14.24,4.48
		c26.64,10.15,31.41,34.01,23.22,55.48c-6.24,16.35-19.61,24.98-35.81,28.9c-33.3,8.06-65.34,3.43-96.07-11.34
		C1116.48,615.27,1115.82,614.79,1114.72,614.11z"/>
	<path class="st1" d="M864.25,493.46c-6.5,13.09-12.6,25.4-18.44,37.16c-9.71-3.46-18.73-7.39-28.14-9.78
		c-6.63-1.68-13.8-1.56-20.73-1.66c-3.29-0.05-6.88,1.13-7.22,5.42c-0.33,4.25,2.86,5.75,6.22,6.58c10.8,2.68,21.66,5.11,32.44,7.84
		c4.17,1.06,8.3,2.46,12.29,4.08c32.86,13.36,29.87,50.82,13.71,68.09c-11.24,12.02-25.85,16.89-41.46,18.58
		c-28.18,3.05-55.42-0.85-81.07-13.56c-0.89-0.44-1.78-0.9-2.64-1.41c-0.27-0.16-0.45-0.47-1.07-1.14
		c6.15-12.03,12.4-24.23,18.68-36.51c6.52,2.93,12.47,6.37,18.88,8.28c8.71,2.6,17.71,4.32,26.69,5.81
		c3.66,0.61,7.81,0.3,11.32-0.84c2.39-0.78,5.15-3.5,5.66-5.81c0.31-1.41-3.02-4.78-5.24-5.39c-8.78-2.45-17.82-3.98-26.67-6.21
		c-5.95-1.5-11.93-3.15-17.57-5.51c-24.88-10.45-33.87-36.42-21.16-60.38c7.26-13.69,19.12-21.7,33.62-25.48
		C804.27,473.3,834.59,478.73,864.25,493.46z"/>
	<path class="st1" d="M422.93,481.88c-4.94,14.93-9.6,29.28-14.56,43.51c-0.43,1.22-2.9,2.39-4.46,2.44
		c-7.44,0.25-14.89,0.11-22.22,0.11c0,15.2-0.41,29.82,0.16,44.4c0.31,7.88,4.94,11.43,12.84,11.59c2.62,0.05,5.31-0.41,7.87-1.03
		c2.56-0.62,4.99-1.72,7.96-2.78c5.72,12.31,11.51,24.58,17.01,37c0.37,0.83-1.21,3.47-2.38,3.88c-9.02,3.22-17.98,7-27.31,8.85
		c-11.95,2.38-24.16,1.74-36.22-0.74c-24-4.92-38.18-21.59-38.64-46.32c-0.31-16.49-0.09-32.99-0.1-49.48c0-1.63,0-3.25,0-5.29
		c-5.41,0-10.34,0-15.65,0c0-15.47,0-30.51,0-46.06c5.04,0,9.96,0,15.67,0c0-6.58-0.17-12.67,0.11-18.74
		c0.08-1.69,1.03-3.97,2.35-4.87c17.8-12.29,35.74-24.38,53.65-36.51c0.38-0.26,0.87-0.36,1.85-0.76c0.1,2.15,0.26,4.04,0.26,5.94
		c0.01,16.66,0.14,33.32-0.11,49.98c-0.06,4.11,1.3,5.08,5.12,4.99c10.49-0.23,20.99-0.1,31.49-0.12
		C419.24,481.88,420.86,481.88,422.93,481.88z"/>
	<path class="st1" d="M665.46,482.59c0,5.68,0,11.42,0,18.66c15.85-19.64,34.76-26.06,58.22-20.05
		c-1.85,18.71-3.65,36.85-5.43,54.75c-6.62-0.71-12.66-1.89-18.7-1.9c-17.57-0.02-31.57,10.39-31.06,31.03
		c0.47,18.98,0.07,37.98,0.12,56.97c0.01,2.68,0.17,4.89-3.69,4.86c-17.32-0.16-34.65-0.12-51.98-0.17c-0.47,0-0.93-0.24-1.69-0.45
		c0-47.75,0-95.5,0-143.71C629.09,482.59,646.96,482.59,665.46,482.59z"/>
	<path class="st1" d="M880.46,482.43c19.28,0,38.35,0,57.83,0c0.13,1.5,0.37,2.95,0.37,4.39c0.01,44.8-0.06,89.6,0.07,134.4
		c0.01,4.3-1.02,5.77-5.54,5.69c-15.82-0.26-31.64-0.08-47.46-0.09c-1.63,0-3.26-0.16-5.27-0.26
		C880.46,578.54,880.46,530.83,880.46,482.43z"/>
	<path class="st1" d="M941.88,438.18c0,17.57-14.57,31.94-32.29,31.85c-17.12-0.09-31.5-14.41-31.62-31.48
		c-0.13-18.39,14.18-33.22,32.07-33.24C927.68,405.28,941.88,419.93,941.88,438.18z"/>
	<path class="st1" d="M8.23,436.05c-16.65-0.01-29.48,12.79-29.4,29.32c0.09,16.36,12.86,29.03,29.22,28.98
		c16.35-0.06,29.68-13.26,29.67-29.38C37.71,449.01,24.51,436.06,8.23,436.05z M22.46,460.4c-2.74,0-4.96-2.22-4.96-4.96
		c0-2.74,2.22-4.96,4.96-4.96c2.74,0,4.96,2.22,4.96,4.96C27.43,458.17,25.21,460.4,22.46,460.4z"/>
	<path class="st1" d="M142.49,436.04c-16.56-0.18-29.53,12.23-29.75,28.47c-0.23,16.78,12.21,29.65,28.88,29.86
		c16.54,0.21,29.37-12.51,29.51-29.25C171.26,449.1,158.56,436.21,142.49,436.04z M155.11,460.4c-2.74,0-4.96-2.22-4.96-4.96
		c0-2.74,2.22-4.96,4.96-4.96c2.74,0,4.96,2.22,4.96,4.96C160.07,458.17,157.85,460.4,155.11,460.4z"/>
</g>
<g id="Layer_1_copy" class="st0">
	<path class="st1" d="M75.41,724.24c-10.92-24.43-28.34-42.37-53.45-52.11c-25.31-9.82-50.21-7.24-74.7,3.83
		c4.25-35.47,46.04-93.14,112.1-101.72c75.13-9.75,134.64,47.61,145.22,101.06C148.6,656.71,105.56,672.2,75.41,724.24z"/>
	<path class="st1" d="M590.55,482.49c0,48.02,0,95.75,0,143.91c-18,0-35.88,0-54.29,0c0-4.03,0-7.93,0-12.16
		c-0.99,0.3-1.54,0.29-1.8,0.56c-23.3,23.74-65.12,18.99-87.16-6.75c-27.04-31.58-23.4-87.18,7.99-114.01
		c20.2-17.27,50.16-20.15,70.52-6.64c3.4,2.25,6.4,5.09,10.24,8.18c0-4.64,0-8.69,0-13.09
		C554.37,482.49,572.12,482.49,590.55,482.49z M536,554.97c0.02-12.94-7.18-23.58-18.24-26.93c-13.09-3.97-26.26,3.24-30.7,16.8
		c-4.99,15.23,1.79,31.4,15.21,36.29C519.23,587.3,535.96,574.33,536,554.97z"/>
	<path class="st1" d="M1104.78,482.4c0,31.7,0.03,62.84-0.06,93.98c-0.01,2.62-0.72,5.27-1.3,7.86
		c-3.29,14.76-11.4,26.33-24.46,33.72c-29.88,16.9-60.7,17.17-91.19,2.23c-19.63-9.62-29.23-26.75-29.49-48.51
		c-0.34-28.81-0.05-57.63-0.01-86.45c0-0.8,0.19-1.6,0.33-2.76c19.41,0,38.62,0,58.55,0c0,2.15,0,4.25,0,6.35
		c0,24.82,0,49.64,0.03,74.46c0,2.15,0.11,4.33,0.43,6.45c1.39,9.21,6.25,13.21,15.21,12.67c8.52-0.52,13.22-5.64,13.25-14.9
		c0.07-26.65,0.02-53.3,0.02-79.95c0-1.62,0-3.25,0-5.14C1065.82,482.4,1085.05,482.4,1104.78,482.4z"/>
	<path class="st1" d="M1114.72,614.11c6.36-12.6,12.49-24.74,18.85-37.32c1.7,0.84,3.29,1.59,4.83,2.4
		c14.62,7.72,29.96,12.7,46.73,12.15c1.33-0.04,2.69-0.06,3.98-0.36c3.28-0.78,6.77-1.59,7.03-5.85c0.25-4.03-2.82-5.52-5.95-6.27
		c-10-2.41-20.1-4.38-30.08-6.87c-10.38-2.58-20.46-5.97-28.48-13.57c-14.32-13.57-15.75-38.74-3.17-56.35
		c9.85-13.8,24.12-20.25,40.15-22.72c27.59-4.24,53.99,0.21,78.98,12.74c0.87,0.44,1.65,1.05,3.04,1.95
		c-6.17,12.38-12.29,24.65-18.25,36.6c-9.63-3.45-18.62-7.37-27.99-9.79c-6.47-1.68-13.46-1.54-20.23-1.74
		c-3.64-0.11-7.34,1.4-7.83,5.53c-0.53,4.41,3.29,5.87,6.71,6.73c9.5,2.38,19.1,4.36,28.6,6.74c4.82,1.21,9.59,2.71,14.24,4.48
		c26.64,10.15,31.41,34.01,23.22,55.48c-6.24,16.35-19.61,24.98-35.81,28.9c-33.3,8.06-65.34,3.43-96.07-11.34
		C1116.48,615.27,1115.82,614.79,1114.72,614.11z"/>
	<path class="st1" d="M864.25,493.46c-6.5,13.09-12.6,25.4-18.44,37.16c-9.71-3.46-18.73-7.39-28.14-9.78
		c-6.63-1.68-13.8-1.56-20.73-1.66c-3.29-0.05-6.88,1.13-7.22,5.42c-0.33,4.25,2.86,5.75,6.22,6.58c10.8,2.68,21.66,5.11,32.44,7.84
		c4.17,1.06,8.3,2.46,12.29,4.08c32.86,13.36,29.87,50.82,13.71,68.09c-11.24,12.02-25.85,16.89-41.46,18.58
		c-28.18,3.05-55.42-0.85-81.07-13.56c-0.89-0.44-1.78-0.9-2.64-1.41c-0.27-0.16-0.45-0.47-1.07-1.14
		c6.15-12.03,12.4-24.23,18.68-36.51c6.52,2.93,12.47,6.37,18.88,8.28c8.71,2.6,17.71,4.32,26.69,5.81
		c3.66,0.61,7.81,0.3,11.32-0.84c2.39-0.78,5.15-3.5,5.66-5.81c0.31-1.41-3.02-4.78-5.24-5.39c-8.78-2.45-17.82-3.98-26.67-6.21
		c-5.95-1.5-11.93-3.15-17.57-5.51c-24.88-10.45-33.87-36.42-21.16-60.38c7.26-13.69,19.12-21.7,33.62-25.48
		C804.27,473.3,834.59,478.73,864.25,493.46z"/>
	<path class="st1" d="M422.93,481.88c-4.94,14.93-9.6,29.28-14.56,43.51c-0.43,1.22-2.9,2.39-4.46,2.44
		c-7.44,0.25-14.89,0.11-22.22,0.11c0,15.2-0.41,29.82,0.16,44.4c0.31,7.88,4.94,11.43,12.84,11.59c2.62,0.05,5.31-0.41,7.87-1.03
		c2.56-0.62,4.99-1.72,7.96-2.78c5.72,12.31,11.51,24.58,17.01,37c0.37,0.83-1.21,3.47-2.38,3.88c-9.02,3.22-17.98,7-27.31,8.85
		c-11.95,2.38-24.16,1.74-36.22-0.74c-24-4.92-38.18-21.59-38.64-46.32c-0.31-16.49-0.09-32.99-0.1-49.48c0-1.63,0-3.25,0-5.29
		c-5.41,0-10.34,0-15.65,0c0-15.47,0-30.51,0-46.06c5.04,0,9.96,0,15.67,0c0-6.58-0.17-12.67,0.11-18.74
		c0.08-1.69,1.03-3.97,2.35-4.87c17.8-12.29,35.74-24.38,53.65-36.51c0.38-0.26,0.87-0.36,1.85-0.76c0.1,2.15,0.26,4.04,0.26,5.94
		c0.01,16.66,0.14,33.32-0.11,49.98c-0.06,4.11,1.3,5.08,5.12,4.99c10.49-0.23,20.99-0.1,31.49-0.12
		C419.24,481.88,420.86,481.88,422.93,481.88z"/>
	<path class="st1" d="M665.46,482.59c0,5.68,0,11.42,0,18.66c15.85-19.64,34.76-26.06,58.22-20.05
		c-1.85,18.71-3.65,36.85-5.43,54.75c-6.62-0.71-12.66-1.89-18.7-1.9c-17.57-0.02-31.57,10.39-31.06,31.03
		c0.47,18.98,0.07,37.98,0.12,56.97c0.01,2.68,0.17,4.89-3.69,4.86c-17.32-0.16-34.65-0.12-51.98-0.17c-0.47,0-0.93-0.24-1.69-0.45
		c0-47.75,0-95.5,0-143.71C629.09,482.59,646.96,482.59,665.46,482.59z"/>
	<path class="st1" d="M880.46,482.43c19.28,0,38.35,0,57.83,0c0.13,1.5,0.37,2.95,0.37,4.39c0.01,44.8-0.06,89.6,0.07,134.4
		c0.01,4.3-1.02,5.77-5.54,5.69c-15.82-0.26-31.64-0.08-47.46-0.09c-1.63,0-3.26-0.16-5.27-0.26
		C880.46,578.54,880.46,530.83,880.46,482.43z"/>
	<path class="st1" d="M941.88,438.18c0,17.57-14.57,31.94-32.29,31.85c-17.12-0.09-31.5-14.41-31.62-31.48
		c-0.13-18.39,14.18-33.22,32.07-33.24C927.68,405.28,941.88,419.93,941.88,438.18z"/>
	<path class="st1" d="M8.23,436.05c-16.65-0.01-29.48,12.79-29.4,29.32c0.09,16.36,12.86,29.03,29.22,28.98
		c16.35-0.06,29.68-13.26,29.67-29.38C37.71,449.01,24.51,436.06,8.23,436.05z M22.46,460.4c-2.74,0-4.96-2.22-4.96-4.96
		c0-2.74,2.22-4.96,4.96-4.96c2.74,0,4.96,2.22,4.96,4.96C27.43,458.17,25.21,460.4,22.46,460.4z"/>
	<path class="st1" d="M142.49,436.04c-16.56-0.18-29.53,12.23-29.75,28.47c-0.23,16.78,12.21,29.65,28.88,29.86
		c16.54,0.21,29.37-12.51,29.51-29.25C171.26,449.1,158.56,436.21,142.49,436.04z M155.11,460.4c-2.74,0-4.96-2.22-4.96-4.96
		c0-2.74,2.22-4.96,4.96-4.96c2.74,0,4.96,2.22,4.96,4.96C160.07,458.17,157.85,460.4,155.11,460.4z"/>
	<path class="st1" d="M269.35,377.78c1.06-6.08,1.42-12.28,2.21-19.37c-22.96,4.22-42.66,12.83-62.75,22.79
		c-1.92-2.2-3.77-4.58-5.88-6.7c-12.75-12.76-27.59-22.48-44.18-29.44c-40.71-17.1-82.88-19.42-125.83-11.46
		c-34.13,6.33-64.42,20.7-89.42,45.24c-2.11,2.07-3.67,1.74-6.08,0.74c-14.1-5.86-28.22-11.69-42.47-17.14
		c-4.88-1.87-10.19-2.63-16.52-4.19c0.38,5.87,0.38,10.36,1.02,14.75c2.72,18.84,10.66,35.5,21.56,50.93
		c1.18,1.67,1.94,4.27,1.65,6.25c-1.55,10.49-4.37,20.86-5.14,31.38c-2.12,28.87,5.21,55.14,26.26,75.77
		c30.27,29.67,66.1,36.99,106.27,23.66c4.65-1.54,9.36-3.47,14.11-4.41c6,7.19,17.96,12.09,31.75,12.09
		c13.65,0,25.51-4.8,31.57-11.87c3.23,0.72,6.41,1.7,9.42,2.87c17.32,6.71,35.01,9.64,53.32,6.4c37.17-6.56,63.67-26.91,76.72-62.71
		c8.55-23.44,6.59-47.5,0.54-71.28c-0.86-3.38-0.58-5.9,1.45-8.74C258.81,409.55,266.42,394.66,269.35,377.78z M7.1,524.63
		c-32.49-0.39-59.08-28.14-58.43-60.95c0.65-32.77,27.67-58.95,60.35-58.46c32.46,0.48,58.85,27.6,58.3,59.89
		C66.74,498.93,40.33,525.03,7.1,524.63z M202.14,467.25c-1.1,31.28-28.41,57.76-60.23,57.26c-33.3-0.53-59.43-27.32-58.9-60.39
		c0.53-32.62,27.9-59.67,60.16-58.89C179.46,406.1,203.23,436.25,202.14,467.25z"/>
	<g class="st1">
		<path class="st2" d="M75.91,553.08c-10.2,0-19.57-4.11-25.05-11c-0.96-1.21-0.76-2.97,0.45-3.93c1.21-0.96,2.97-0.76,3.93,0.45
			c4.43,5.57,12.16,8.89,20.68,8.89s16.25-3.32,20.68-8.89c0.96-1.21,2.72-1.41,3.93-0.45c1.21,0.96,1.41,2.72,0.45,3.93
			C95.48,548.97,86.12,553.08,75.91,553.08z"/>
	</g>
</g>
<g id="Layer_1_copy_2" class="st0">
	<g class="st1">
		<path d="M590.55,482.49c0,48.02,0,95.75,0,143.91c-18,0-35.88,0-54.29,0c0-4.03,0-7.93,0-12.16c-0.99,0.3-1.54,0.29-1.8,0.56
			c-23.3,23.74-65.12,18.99-87.16-6.75c-27.04-31.58-23.4-87.18,7.99-114.01c20.2-17.27,50.16-20.15,70.52-6.64
			c3.4,2.25,6.4,5.09,10.24,8.18c0-4.64,0-8.69,0-13.09C554.37,482.49,572.12,482.49,590.55,482.49z M536,554.97
			c0.02-12.94-7.18-23.58-18.24-26.93c-13.09-3.97-26.26,3.24-30.7,16.8c-4.99,15.23,1.79,31.4,15.21,36.29
			C519.23,587.3,535.96,574.33,536,554.97z"/>
		<path d="M1104.78,482.4c0,31.7,0.03,62.84-0.06,93.98c-0.01,2.62-0.72,5.27-1.3,7.86c-3.29,14.76-11.4,26.33-24.46,33.72
			c-29.88,16.9-60.7,17.17-91.19,2.23c-19.63-9.62-29.23-26.75-29.49-48.51c-0.34-28.81-0.05-57.63-0.01-86.45
			c0-0.8,0.19-1.6,0.33-2.76c19.41,0,38.62,0,58.55,0c0,2.15,0,4.25,0,6.35c0,24.82,0,49.64,0.03,74.46c0,2.15,0.11,4.33,0.43,6.45
			c1.39,9.21,6.25,13.21,15.21,12.67c8.52-0.52,13.22-5.64,13.25-14.9c0.07-26.65,0.02-53.3,0.02-79.95c0-1.62,0-3.25,0-5.14
			C1065.82,482.4,1085.05,482.4,1104.78,482.4z"/>
		<path d="M1114.72,614.11c6.36-12.6,12.49-24.74,18.85-37.32c1.7,0.84,3.29,1.59,4.83,2.4c14.62,7.72,29.96,12.7,46.73,12.15
			c1.33-0.04,2.69-0.06,3.98-0.36c3.28-0.78,6.77-1.59,7.03-5.85c0.25-4.03-2.82-5.52-5.95-6.27c-10-2.41-20.1-4.38-30.08-6.87
			c-10.38-2.58-20.46-5.97-28.48-13.57c-14.32-13.57-15.75-38.74-3.17-56.35c9.85-13.8,24.12-20.25,40.15-22.72
			c27.59-4.24,53.99,0.21,78.98,12.74c0.87,0.44,1.65,1.05,3.04,1.95c-6.17,12.38-12.29,24.65-18.25,36.6
			c-9.63-3.45-18.62-7.37-27.99-9.79c-6.47-1.68-13.46-1.54-20.23-1.74c-3.64-0.11-7.34,1.4-7.83,5.53
			c-0.53,4.41,3.29,5.87,6.71,6.73c9.5,2.38,19.1,4.36,28.6,6.74c4.82,1.21,9.59,2.71,14.24,4.48
			c26.64,10.15,31.41,34.01,23.22,55.48c-6.24,16.35-19.61,24.98-35.81,28.9c-33.3,8.06-65.34,3.43-96.07-11.34
			C1116.48,615.27,1115.82,614.79,1114.72,614.11z"/>
		<path d="M864.25,493.46c-6.5,13.09-12.6,25.4-18.44,37.16c-9.71-3.46-18.73-7.39-28.14-9.78c-6.63-1.68-13.8-1.56-20.73-1.66
			c-3.29-0.05-6.88,1.13-7.22,5.42c-0.33,4.25,2.86,5.75,6.22,6.58c10.8,2.68,21.66,5.11,32.44,7.84c4.17,1.06,8.3,2.46,12.29,4.08
			c32.86,13.36,29.87,50.82,13.71,68.09c-11.24,12.02-25.85,16.89-41.46,18.58c-28.18,3.05-55.42-0.85-81.07-13.56
			c-0.89-0.44-1.78-0.9-2.64-1.41c-0.27-0.16-0.45-0.47-1.07-1.14c6.15-12.03,12.4-24.23,18.68-36.51
			c6.52,2.93,12.47,6.37,18.88,8.28c8.71,2.6,17.71,4.32,26.69,5.81c3.66,0.61,7.81,0.3,11.32-0.84c2.39-0.78,5.15-3.5,5.66-5.81
			c0.31-1.41-3.02-4.78-5.24-5.39c-8.78-2.45-17.82-3.98-26.67-6.21c-5.95-1.5-11.93-3.15-17.57-5.51
			c-24.88-10.45-33.87-36.42-21.16-60.38c7.26-13.69,19.12-21.7,33.62-25.48C804.27,473.3,834.59,478.73,864.25,493.46z"/>
		<path d="M422.93,481.88c-4.94,14.93-9.6,29.28-14.56,43.51c-0.43,1.22-2.9,2.39-4.46,2.44c-7.44,0.25-14.89,0.11-22.22,0.11
			c0,15.2-0.41,29.82,0.16,44.4c0.31,7.88,4.94,11.43,12.84,11.59c2.62,0.05,5.31-0.41,7.87-1.03c2.56-0.62,4.99-1.72,7.96-2.78
			c5.72,12.31,11.51,24.58,17.01,37c0.37,0.83-1.21,3.47-2.38,3.88c-9.02,3.22-17.98,7-27.31,8.85
			c-11.95,2.38-24.16,1.74-36.22-0.74c-24-4.92-38.18-21.59-38.64-46.32c-0.31-16.49-0.09-32.99-0.1-49.48c0-1.63,0-3.25,0-5.29
			c-5.41,0-10.34,0-15.65,0c0-15.47,0-30.51,0-46.06c5.04,0,9.96,0,15.67,0c0-6.58-0.17-12.67,0.11-18.74
			c0.08-1.69,1.03-3.97,2.35-4.87c17.8-12.29,35.74-24.38,53.65-36.51c0.38-0.26,0.87-0.36,1.85-0.76c0.1,2.15,0.26,4.04,0.26,5.94
			c0.01,16.66,0.14,33.32-0.11,49.98c-0.06,4.11,1.3,5.08,5.12,4.99c10.49-0.23,20.99-0.1,31.49-0.12
			C419.24,481.88,420.86,481.88,422.93,481.88z"/>
		<path d="M665.46,482.59c0,5.68,0,11.42,0,18.66c15.85-19.64,34.76-26.06,58.22-20.05c-1.85,18.71-3.65,36.85-5.43,54.75
			c-6.62-0.71-12.66-1.89-18.7-1.9c-17.57-0.02-31.57,10.39-31.06,31.03c0.47,18.98,0.07,37.98,0.12,56.97
			c0.01,2.68,0.17,4.89-3.69,4.86c-17.32-0.16-34.65-0.12-51.98-0.17c-0.47,0-0.93-0.24-1.69-0.45c0-47.75,0-95.5,0-143.71
			C629.09,482.59,646.96,482.59,665.46,482.59z"/>
		<path d="M880.46,482.43c19.28,0,38.35,0,57.83,0c0.13,1.5,0.37,2.95,0.37,4.39c0.01,44.8-0.06,89.6,0.07,134.4
			c0.01,4.3-1.02,5.77-5.54,5.69c-15.82-0.26-31.64-0.08-47.46-0.09c-1.63,0-3.26-0.16-5.27-0.26
			C880.46,578.54,880.46,530.83,880.46,482.43z"/>
		<path d="M941.88,438.18c0,17.57-14.57,31.94-32.29,31.85c-17.12-0.09-31.5-14.41-31.62-31.48c-0.13-18.39,14.18-33.22,32.07-33.24
			C927.68,405.28,941.88,419.93,941.88,438.18z"/>
		<g>
			<path d="M59.35,574.25c-66.06,8.57-107.85,66.24-112.1,101.72c24.49-11.07,49.39-13.65,74.7-3.83
				c25.11,9.74,42.53,27.67,53.45,52.11c30.15-52.04,73.19-67.54,129.17-48.93C194,621.86,134.49,564.5,59.35,574.25z"/>
			<path d="M8.23,436.05c-16.65-0.01-29.48,12.79-29.4,29.32c0.09,16.36,12.86,29.03,29.22,28.98
				c16.35-0.06,29.68-13.26,29.67-29.38C37.71,449.01,24.51,436.06,8.23,436.05z M22.46,460.4c-2.74,0-4.96-2.22-4.96-4.96
				c0-2.74,2.22-4.96,4.96-4.96c2.74,0,4.96,2.22,4.96,4.96C27.43,458.17,25.21,460.4,22.46,460.4z"/>
			<path d="M142.49,436.04c-16.56-0.18-29.53,12.23-29.75,28.47c-0.23,16.78,12.21,29.65,28.88,29.86
				c16.54,0.21,29.37-12.51,29.51-29.25C171.26,449.1,158.56,436.21,142.49,436.04z M155.11,460.4c-2.74,0-4.96-2.22-4.96-4.96
				c0-2.74,2.22-4.96,4.96-4.96c2.74,0,4.96,2.22,4.96,4.96C160.07,458.17,157.85,460.4,155.11,460.4z"/>
			<path d="M269.35,377.78c1.06-6.08,1.42-12.28,2.21-19.37c-22.96,4.22-42.66,12.83-62.75,22.79c-1.92-2.2-3.77-4.58-5.88-6.7
				c-12.75-12.76-27.59-22.48-44.18-29.44c-40.71-17.1-82.88-19.42-125.83-11.46c-34.13,6.33-64.42,20.7-89.42,45.24
				c-2.11,2.07-3.67,1.74-6.08,0.74c-14.1-5.86-28.22-11.69-42.47-17.14c-4.88-1.87-10.19-2.63-16.52-4.19
				c0.38,5.87,0.38,10.36,1.02,14.75c2.72,18.84,10.66,35.5,21.56,50.93c1.18,1.67,1.94,4.27,1.65,6.25
				c-1.55,10.49-4.37,20.86-5.14,31.38c-2.12,28.87,5.21,55.14,26.26,75.77c30.27,29.67,66.1,36.99,106.27,23.66
				c4.65-1.54,9.36-3.47,14.11-4.41c6,7.19,17.96,12.09,31.75,12.09c13.65,0,25.51-4.8,31.57-11.87c3.23,0.72,6.41,1.7,9.42,2.87
				c17.32,6.71,35.01,9.64,53.32,6.4c37.17-6.56,63.67-26.91,76.72-62.71c8.55-23.44,6.59-47.5,0.54-71.28
				c-0.86-3.38-0.58-5.9,1.45-8.74C258.81,409.55,266.42,394.66,269.35,377.78z M7.1,524.63c-32.49-0.39-59.08-28.14-58.43-60.95
				c0.65-32.77,27.67-58.95,60.35-58.46c32.46,0.48,58.85,27.6,58.3,59.89C66.74,498.93,40.33,525.03,7.1,524.63z M100.96,542.08
				c-5.48,6.89-14.85,11-25.05,11s-19.57-4.11-25.05-11c-0.96-1.21-0.76-2.97,0.45-3.93c1.21-0.96,2.97-0.76,3.93,0.45
				c4.43,5.57,12.16,8.89,20.68,8.89c8.52,0,16.25-3.32,20.68-8.89c0.96-1.21,2.72-1.41,3.93-0.45
				C101.72,539.11,101.92,540.87,100.96,542.08z M202.14,467.25c-1.1,31.28-28.41,57.76-60.23,57.26
				c-33.3-0.53-59.43-27.32-58.9-60.39c0.53-32.62,27.9-59.67,60.16-58.89C179.46,406.1,203.23,436.25,202.14,467.25z"/>
		</g>
	</g>
</g>
<g id="Layer_1_copy_3" class="st0">
	<g class="st1">
		<g>
			<path class="st2" d="M590.55,482.49c0,48.02,0,95.75,0,143.91c-18,0-35.88,0-54.29,0c0-4.03,0-7.93,0-12.16
				c-0.99,0.3-1.54,0.29-1.8,0.56c-23.3,23.74-65.12,18.99-87.16-6.75c-27.04-31.58-23.4-87.18,7.99-114.01
				c20.2-17.27,50.16-20.15,70.52-6.64c3.4,2.25,6.4,5.09,10.24,8.18c0-4.64,0-8.69,0-13.09
				C554.37,482.49,572.12,482.49,590.55,482.49z M536,554.97c0.02-12.94-7.18-23.58-18.24-26.93c-13.09-3.97-26.26,3.24-30.7,16.8
				c-4.99,15.23,1.79,31.4,15.21,36.29C519.23,587.3,535.96,574.33,536,554.97z"/>
			<path class="st2" d="M1104.78,482.4c0,31.7,0.03,62.84-0.06,93.98c-0.01,2.62-0.72,5.27-1.3,7.86
				c-3.29,14.76-11.4,26.33-24.46,33.72c-29.88,16.9-60.7,17.17-91.19,2.23c-19.63-9.62-29.23-26.75-29.49-48.51
				c-0.34-28.81-0.05-57.63-0.01-86.45c0-0.8,0.19-1.6,0.33-2.76c19.41,0,38.62,0,58.55,0c0,2.15,0,4.25,0,6.35
				c0,24.82,0,49.64,0.03,74.46c0,2.15,0.11,4.33,0.43,6.45c1.39,9.21,6.25,13.21,15.21,12.67c8.52-0.52,13.22-5.64,13.25-14.9
				c0.07-26.65,0.02-53.3,0.02-79.95c0-1.62,0-3.25,0-5.14C1065.82,482.4,1085.05,482.4,1104.78,482.4z"/>
			<path class="st2" d="M1114.72,614.11c6.36-12.6,12.49-24.74,18.85-37.32c1.7,0.84,3.29,1.59,4.83,2.4
				c14.62,7.72,29.96,12.7,46.73,12.15c1.33-0.04,2.69-0.06,3.98-0.36c3.28-0.78,6.77-1.59,7.03-5.85c0.25-4.03-2.82-5.52-5.95-6.27
				c-10-2.41-20.1-4.38-30.08-6.87c-10.38-2.58-20.46-5.97-28.48-13.57c-14.32-13.57-15.75-38.74-3.17-56.35
				c9.85-13.8,24.12-20.25,40.15-22.72c27.59-4.24,53.99,0.21,78.98,12.74c0.87,0.44,1.65,1.05,3.04,1.95
				c-6.17,12.38-12.29,24.65-18.25,36.6c-9.63-3.45-18.62-7.37-27.99-9.79c-6.47-1.68-13.46-1.54-20.23-1.74
				c-3.64-0.11-7.34,1.4-7.83,5.53c-0.53,4.41,3.29,5.87,6.71,6.73c9.5,2.38,19.1,4.36,28.6,6.74c4.82,1.21,9.59,2.71,14.24,4.48
				c26.64,10.15,31.41,34.01,23.22,55.48c-6.24,16.35-19.61,24.98-35.81,28.9c-33.3,8.06-65.34,3.43-96.07-11.34
				C1116.48,615.27,1115.82,614.79,1114.72,614.11z"/>
			<path class="st2" d="M864.25,493.46c-6.5,13.09-12.6,25.4-18.44,37.16c-9.71-3.46-18.73-7.39-28.14-9.78
				c-6.63-1.68-13.8-1.56-20.73-1.66c-3.29-0.05-6.88,1.13-7.22,5.42c-0.33,4.25,2.86,5.75,6.22,6.58
				c10.8,2.68,21.66,5.11,32.44,7.84c4.17,1.06,8.3,2.46,12.29,4.08c32.86,13.36,29.87,50.82,13.71,68.09
				c-11.24,12.02-25.85,16.89-41.46,18.58c-28.18,3.05-55.42-0.85-81.07-13.56c-0.89-0.44-1.78-0.9-2.64-1.41
				c-0.27-0.16-0.45-0.47-1.07-1.14c6.15-12.03,12.4-24.23,18.68-36.51c6.52,2.93,12.47,6.37,18.88,8.28
				c8.71,2.6,17.71,4.32,26.69,5.81c3.66,0.61,7.81,0.3,11.32-0.84c2.39-0.78,5.15-3.5,5.66-5.81c0.31-1.41-3.02-4.78-5.24-5.39
				c-8.78-2.45-17.82-3.98-26.67-6.21c-5.95-1.5-11.93-3.15-17.57-5.51c-24.88-10.45-33.87-36.42-21.16-60.38
				c7.26-13.69,19.12-21.7,33.62-25.48C804.27,473.3,834.59,478.73,864.25,493.46z"/>
			<path class="st2" d="M422.93,481.88c-4.94,14.93-9.6,29.28-14.56,43.51c-0.43,1.22-2.9,2.39-4.46,2.44
				c-7.44,0.25-14.89,0.11-22.22,0.11c0,15.2-0.41,29.82,0.16,44.4c0.31,7.88,4.94,11.43,12.84,11.59c2.62,0.05,5.31-0.41,7.87-1.03
				c2.56-0.62,4.99-1.72,7.96-2.78c5.72,12.31,11.51,24.58,17.01,37c0.37,0.83-1.21,3.47-2.38,3.88c-9.02,3.22-17.98,7-27.31,8.85
				c-11.95,2.38-24.16,1.74-36.22-0.74c-24-4.92-38.18-21.59-38.64-46.32c-0.31-16.49-0.09-32.99-0.1-49.48c0-1.63,0-3.25,0-5.29
				c-5.41,0-10.34,0-15.65,0c0-15.47,0-30.51,0-46.06c5.04,0,9.96,0,15.67,0c0-6.58-0.17-12.67,0.11-18.74
				c0.08-1.69,1.03-3.97,2.35-4.87c17.8-12.29,35.74-24.38,53.65-36.51c0.38-0.26,0.87-0.36,1.85-0.76c0.1,2.15,0.26,4.04,0.26,5.94
				c0.01,16.66,0.14,33.32-0.11,49.98c-0.06,4.11,1.3,5.08,5.12,4.99c10.49-0.23,20.99-0.1,31.49-0.12
				C419.24,481.88,420.86,481.88,422.93,481.88z"/>
			<path class="st2" d="M665.46,482.59c0,5.68,0,11.42,0,18.66c15.85-19.64,34.76-26.06,58.22-20.05
				c-1.85,18.71-3.65,36.85-5.43,54.75c-6.62-0.71-12.66-1.89-18.7-1.9c-17.57-0.02-31.57,10.39-31.06,31.03
				c0.47,18.98,0.07,37.98,0.12,56.97c0.01,2.68,0.17,4.89-3.69,4.86c-17.32-0.16-34.65-0.12-51.98-0.17
				c-0.47,0-0.93-0.24-1.69-0.45c0-47.75,0-95.5,0-143.71C629.09,482.59,646.96,482.59,665.46,482.59z"/>
			<path class="st2" d="M880.46,482.43c19.28,0,38.35,0,57.83,0c0.13,1.5,0.37,2.95,0.37,4.39c0.01,44.8-0.06,89.6,0.07,134.4
				c0.01,4.3-1.02,5.77-5.54,5.69c-15.82-0.26-31.64-0.08-47.46-0.09c-1.63,0-3.26-0.16-5.27-0.26
				C880.46,578.54,880.46,530.83,880.46,482.43z"/>
			<path class="st2" d="M941.88,438.18c0,17.57-14.57,31.94-32.29,31.85c-17.12-0.09-31.5-14.41-31.62-31.48
				c-0.13-18.39,14.18-33.22,32.07-33.24C927.68,405.28,941.88,419.93,941.88,438.18z"/>
		</g>
		<g>
			<path class="st2" d="M8.23,436.05c-16.65-0.01-29.48,12.79-29.4,29.32c0.09,16.36,12.86,29.03,29.22,28.98
				c16.35-0.06,29.68-13.26,29.67-29.38C37.71,449.01,24.51,436.06,8.23,436.05z M22.46,460.4c-2.74,0-4.96-2.22-4.96-4.96
				c0-2.74,2.22-4.96,4.96-4.96c2.74,0,4.96,2.22,4.96,4.96C27.43,458.17,25.21,460.4,22.46,460.4z"/>
			<path class="st2" d="M142.49,436.04c-16.56-0.18-29.53,12.23-29.75,28.47c-0.23,16.78,12.21,29.65,28.88,29.86
				c16.54,0.21,29.37-12.51,29.51-29.25C171.26,449.1,158.56,436.21,142.49,436.04z M155.11,460.4c-2.74,0-4.96-2.22-4.96-4.96
				c0-2.74,2.22-4.96,4.96-4.96c2.74,0,4.96,2.22,4.96,4.96C160.07,458.17,157.85,460.4,155.11,460.4z"/>
			<path class="st2" d="M269.35,377.78c1.06-6.08,1.42-12.28,2.21-19.37c-22.96,4.22-42.66,12.83-62.75,22.79
				c-1.92-2.2-3.77-4.58-5.88-6.7c-12.75-12.76-27.59-22.48-44.18-29.44c-40.71-17.1-82.88-19.42-125.83-11.46
				c-34.13,6.33-64.42,20.7-89.42,45.24c-2.11,2.07-3.67,1.74-6.08,0.74c-14.1-5.86-28.22-11.69-42.47-17.14
				c-4.88-1.87-10.19-2.63-16.52-4.19c0.38,5.87,0.38,10.36,1.02,14.75c2.72,18.84,10.66,35.5,21.56,50.93
				c1.18,1.67,1.94,4.27,1.65,6.25c-1.55,10.49-4.37,20.86-5.14,31.38c-2.12,28.87,5.21,55.14,26.26,75.77
				c30.27,29.67,66.1,36.99,106.27,23.66c4.65-1.54,9.36-3.47,14.11-4.41c6,7.19,17.96,12.09,31.75,12.09
				c13.65,0,25.51-4.8,31.57-11.87c3.23,0.72,6.41,1.7,9.42,2.87c17.32,6.71,35.01,9.64,53.32,6.4
				c37.17-6.56,63.67-26.91,76.72-62.71c8.55-23.44,6.59-47.5,0.54-71.28c-0.86-3.38-0.58-5.9,1.45-8.74
				C258.81,409.55,266.42,394.66,269.35,377.78z M7.1,524.63c-32.49-0.39-59.08-28.14-58.43-60.95
				c0.65-32.77,27.67-58.95,60.35-58.46c32.46,0.48,58.85,27.6,58.3,59.89C66.74,498.93,40.33,525.03,7.1,524.63z M100.96,542.08
				c-5.48,6.89-14.85,11-25.05,11s-19.57-4.11-25.05-11c-0.96-1.21-0.76-2.97,0.45-3.93c1.21-0.96,2.97-0.76,3.93,0.45
				c4.43,5.57,12.16,8.89,20.68,8.89c8.52,0,16.25-3.32,20.68-8.89c0.96-1.21,2.72-1.41,3.93-0.45
				C101.72,539.11,101.92,540.87,100.96,542.08z M202.14,467.25c-1.1,31.28-28.41,57.76-60.23,57.26
				c-33.3-0.53-59.43-27.32-58.9-60.39c0.53-32.62,27.9-59.67,60.16-58.89C179.46,406.1,203.23,436.25,202.14,467.25z"/>
			<path class="st2" d="M60.77,689.32c-14.84-17.39-33.26-27.19-55.66-28.76c-22.75-1.6-41.39,7.65-57.01,23.84
				c-0.28-0.16-0.56-0.32-0.85-0.48c0.62-3.86,0.93-7.8,1.91-11.56c7.15-27.47,22.2-49.98,43.58-68.36
				c17.92-15.4,38.55-25.47,61.92-29.02c48.43-7.35,88.8,7.36,119.87,45.62c14.79,18.22,24.47,39.01,28.69,62.21
				c0.54,2.99,0.92,6.01,1.25,9.03c0.49,4.4-1.02,5.86-5.35,5.09c-17.1-3.05-34.32-4.51-51.69-3.83
				c-20.53,0.81-40.71,3.71-59.97,11.26c-19.27,7.55-36.45,18.23-48.93,35.13c-13.17,17.81-18.27,37.54-11.64,59.25
				c7.56,24.77,32.53,41.63,58.39,39.99c13.06-0.83,24.5-5.06,33.19-15.25c9.55-11.2,11-29.09,3.44-40.83
				c-8.17-12.68-23.73-18.82-38-14.86c-5.82,1.62-10.67,4.66-12.83,10.7c-2.18,6.12,1.39,12.52,7.8,13.19
				c3.66,0.38,7.47-0.7,11.22-0.99c2.6-0.2,5.36-0.76,7.8-0.15c4.06,1.02,6.12,4.34,6.77,8.37c0.72,4.48-1.03,8.16-4.69,10.6
				c-2.32,1.55-5.04,2.76-7.76,3.41c-12.45,2.99-24.15,1.49-33.85-7.5c-12.6-11.67-13.14-31.85-1.59-45.47
				c8.28-9.76,19.17-14.16,31.59-14.85c20.5-1.14,37.84,5.85,49.94,22.66c13.43,18.66,14.36,39.05,4.05,59.36
				c-9.97,19.64-27.03,30.1-48.43,33.68c-35.53,5.95-68.81-13.52-83.9-42.8c-7.3-14.16-9.21-29.29-7.8-44.93
				c2.33-25.73,14.23-46.73,32.89-63.96c7.23-6.67,15.56-12.16,23.38-18.18C59.04,690.55,59.59,690.18,60.77,689.32z"/>
		</g>
	</g>
</g>
<g id="Layer_1_copy_4">
	<g>
		<polygon points="755.95,16.48 333.04,16.48 34,315.53 34,738.43 333.04,1037.47 755.95,1037.47 1054.99,738.43 1054.99,315.53 		
			"/>
		<g>
			<g>
				<path class="st2" d="M447.28,294.71c-24.24-0.01-42.93,18.63-42.81,42.7c0.12,23.83,18.73,42.28,42.54,42.2
					c23.81-0.08,43.22-19.3,43.21-42.79C490.2,313.59,470.97,294.73,447.28,294.71z M468,330.17c-3.99,0-7.23-3.24-7.23-7.23
					c0-3.99,3.24-7.23,7.23-7.23c3.99,0,7.23,3.24,7.23,7.23C475.22,326.94,471.99,330.17,468,330.17z"/>
				<path class="st2" d="M642.78,294.7c-24.12-0.26-43,17.8-43.32,41.45c-0.34,24.43,17.78,43.17,42.05,43.48
					c24.08,0.31,42.77-18.22,42.97-42.6C684.67,313.73,666.18,294.95,642.78,294.7z M661.15,330.17c-3.99,0-7.23-3.24-7.23-7.23
					c0-3.99,3.24-7.23,7.23-7.23c3.99,0,7.23,3.24,7.23,7.23C668.37,326.94,665.14,330.17,661.15,330.17z"/>
				<path class="st2" d="M827.5,209.87c1.54-8.85,2.07-17.89,3.21-28.2c-33.44,6.14-62.12,18.69-91.37,33.19
					c-2.8-3.21-5.49-6.67-8.56-9.75c-18.57-18.58-40.18-32.73-64.33-42.87c-59.28-24.9-120.69-28.28-183.23-16.68
					c-49.71,9.22-93.8,30.15-130.21,65.88c-3.07,3.02-5.35,2.54-8.85,1.08c-20.53-8.53-41.09-17.02-61.85-24.97
					c-7.11-2.72-14.84-3.83-24.06-6.11c0.56,8.55,0.56,15.08,1.48,21.47c3.96,27.44,15.52,51.69,31.39,74.16
					c1.72,2.43,2.83,6.21,2.41,9.1c-2.26,15.27-6.36,30.37-7.49,45.7c-3.09,42.04,7.59,80.3,38.24,110.33
					c44.08,43.2,96.25,53.86,154.75,34.45c6.77-2.25,13.63-5.06,20.55-6.42c8.74,10.47,26.16,17.61,46.23,17.61
					c19.87,0,37.15-6.99,45.97-17.29c4.7,1.05,9.33,2.48,13.72,4.18c25.22,9.78,50.98,14.03,77.64,9.33
					c54.13-9.55,92.71-39.18,111.72-91.32c12.45-34.13,9.6-69.17,0.79-103.8c-1.25-4.93-0.85-8.59,2.11-12.73
					C812.16,256.13,823.23,234.45,827.5,209.87z M445.62,423.71c-47.3-0.57-86.03-40.98-85.08-88.76
					c0.95-47.72,40.3-85.83,87.88-85.12c47.26,0.71,85.69,40.19,84.89,87.21C532.47,386.28,494.02,424.29,445.62,423.71z
					 M582.3,449.12c-7.98,10.03-21.62,16.02-36.48,16.02c-14.86,0-28.49-5.99-36.48-16.02c-1.4-1.76-1.11-4.32,0.65-5.72
					c1.76-1.4,4.32-1.11,5.72,0.65c6.45,8.1,17.71,12.94,30.11,12.94c12.4,0,23.66-4.84,30.11-12.94c1.4-1.76,3.96-2.05,5.72-0.65
					C583.41,444.8,583.7,447.36,582.3,449.12z M729.63,340.16c-1.6,45.55-41.36,84.11-87.7,83.38
					c-48.49-0.77-86.54-39.79-85.77-87.94c0.77-47.51,40.62-86.88,87.6-85.75C696.6,251.11,731.22,295.02,729.63,340.16z"/>
				<path class="st2" d="M523.78,663.53c-21.62-25.33-48.43-39.59-81.05-41.88c-33.12-2.33-60.27,11.13-83.02,34.72
					c-0.41-0.23-0.82-0.47-1.23-0.7c0.9-5.62,1.36-11.35,2.79-16.83c10.41-40,32.32-72.78,63.46-99.54
					c26.1-22.43,56.13-37.08,90.17-42.25c70.52-10.71,129.3,10.71,174.56,66.44c21.54,26.53,35.64,56.8,41.77,90.58
					c0.79,4.35,1.34,8.75,1.82,13.15c0.71,6.4-1.49,8.53-7.8,7.41c-24.9-4.44-49.97-6.57-75.26-5.57
					c-29.9,1.17-59.28,5.41-87.32,16.39c-28.05,10.99-53.07,26.55-71.26,51.15c-19.17,25.94-26.61,54.67-16.96,86.28
					c11.02,36.08,47.36,60.62,85.03,58.23c19.01-1.21,35.68-7.37,48.33-22.21c13.9-16.32,16.02-42.35,5-59.45
					c-11.9-18.47-34.55-27.41-55.33-21.64c-8.48,2.35-15.54,6.79-18.68,15.58c-3.18,8.91,2.02,18.24,11.36,19.21
					c5.34,0.56,10.88-1.01,16.34-1.44c3.79-0.3,7.81-1.1,11.36-0.21c5.92,1.48,8.92,6.32,9.86,12.19c1.05,6.53-1.5,11.89-6.83,15.43
					c-3.38,2.25-7.34,4.02-11.3,4.97c-18.13,4.36-35.16,2.18-49.29-10.92c-18.35-17-19.13-46.38-2.31-66.21
					c12.06-14.22,27.92-20.62,46-21.62c29.86-1.66,55.09,8.52,72.71,33c19.56,27.17,20.91,56.86,5.9,86.43
					c-14.52,28.6-39.36,43.83-70.52,49.05c-51.74,8.67-100.2-19.69-122.17-62.33c-10.63-20.62-13.41-42.65-11.35-65.43
					c3.39-37.46,20.71-68.04,47.89-93.14c10.52-9.72,22.65-17.7,34.05-26.47C521.26,665.31,522.05,664.77,523.78,663.53z"/>
			</g>
		</g>
	</g>
</g>
</svg>
